<svg xmlns="http://www.w3.org/2000/svg" width="24.432" height="24.432" viewBox="0 0 24.432 24.432"><path d="M6.42 9.301a3.205 3.205 0 0 0 3.205-3.208c0-1.105.389-2.117-.465-2.691-.512-.349-2.76-.514-3.424-.514-.79 0-1.817.644-2.376 1.119-.695.587-.147 1.104-.147 2.085A3.205 3.205 0 0 0 6.42 9.301zM4.186 5.779c.589-.107.989.087.989.087l.984-.479s-.501.724-.051.479c1.002-.336 2.123-.196 2.693-.084.02.125.038.253.038.386 0 1.32-1.048 2.387-2.349 2.387-1.294 0-2.343-1.067-2.343-2.387 0-.133.018-.261.039-.389zm17.88-.136a3.866 3.866 0 0 0-.07-.541c-.127-1.124-1.133-3.408-4.02-3.34-2.488.059-3.031 1.932-3.162 3.072-.088.28-.145.573-.164.878-3.236.565-2.88 3.849-.904 3.905-.188-1.715.63-2.745.945-3.076.291 1.771 1.82 3.132 3.672 3.132 1.756 0 3.222-1.223 3.619-2.858.303.534.812 1.628.688 2.803 3.113-.027 1.581-3.586-.604-3.975zm-3.703 2.974a2.68 2.68 0 0 1-2.672-2.621c.531-.193.925-1.113.925-1.113s.315.108.315 1.147c.551.192 1.508-1.614 1.508-1.614v1.423c.607.166 2.521-.054 2.521-.054l.071.06c.001.03.009.061.009.092a2.678 2.678 0 0 1-2.677 2.68zm.78 1.152h-2.89l-3.851 4.64-3.727-4.582H4.438L0 14.699l.93.959 3.177-2.711v5.258h.637v3.997h-.405v.469h1.845v-4.466h.691v4.466h1.841v-.469h-.404v-3.997h.773v-5.159l2.54 2.608 1.038-.256.575.144 2.877-3.293.164 1.305-2.672 4.592h3.082v3.998h-.405v.465h1.843v-.465h.002v-3.998h.689v4.463h1.844v-.465h-.405v-3.998h2.389l-2.354-4.592.129-1.606 2.249 3.014 1.49-.371-3.566-4.822z"/></svg>