<svg xmlns="http://www.w3.org/2000/svg" viewBox="0 0 21.41 21.41"><g fill="#030104"><path d="M4.501 9.174l2.621-.926V2.305H4.501zm7.184 0l2.623-.926V2.305h-2.623zM1.299 21.41h18.813v-6.4H1.299v6.4zm9.01-5.414h2.018v3.229h-2.018v-3.229zm-3.567 0h2.019v3.229H6.742v-3.229zm-3.699 0H5.06v3.229H3.043v-3.229z"/><path d="M15.67 11.221l-.515-2.614-6.54 2.614-.783-2.614-6.533 2.614v2.787h18.812v-2.787zM3.316 1.879c.329-.062.583-.247.784-.449.209-.205.369-.41.608-.533.226-.127.514-.163.7-.126.178.031.292.108.424.311.124.194.214.441.324.7h.053c.094-.278.098-.574.003-.873a.93.93 0 0 0-.28-.423.708.708 0 0 0-.523-.163c-.36.044-.571.271-.795.427-.221.16-.45.334-.682.438a2.145 2.145 0 0 1-.685.187.812.812 0 0 1-.539-.188C2.369.935 2.098.47 1.813 0L1.76.01c-.036.564.1 1.166.588 1.623.248.222.642.323.968.246zm8.119.046c.248-.051.424-.195.563-.354.135-.152.246-.303.41-.382a.657.657 0 0 1 .472-.042c.093.034.137.047.237.174.09.119.168.283.275.46h.054a.876.876 0 0 0 .051-.633.682.682 0 0 0-.207-.324.531.531 0 0 0-.408-.125c-.275.043-.413.229-.567.343-.153.12-.317.227-.488.29a1.737 1.737 0 0 1-.458.089.54.54 0 0 1-.31-.121c-.213-.145-.422-.446-.67-.759l-.053.011c-.075.406 0 .844.361 1.194a.844.844 0 0 0 .738.179z"/></g></svg>