<svg xmlns="http://www.w3.org/2000/svg" viewBox="0 0 201.047 201.047"><path d="M181.881 24.328h-84c-10.568 0-19.167 8.598-19.167 19.167v84c0 10.569 8.599 19.167 19.167 19.167h84c10.568 0 19.166-8.598 19.166-19.167v-84c0-10.569-8.598-19.167-19.166-19.167zm-4.842 61.166c0 20.489-16.669 37.158-37.158 37.158s-37.158-16.669-37.158-37.158 16.669-37.158 37.158-37.158 37.158 16.67 37.158 37.158zm-11.321-3.35v6.701a7.5 7.5 0 0 1-7.5 7.5h-6.04a7.5 7.5 0 0 1-7.5-7.5v-6.701a7.5 7.5 0 0 1 7.5-7.5h6.04a7.5 7.5 0 0 1 7.5 7.5zm-30.635 0v6.701a7.5 7.5 0 0 1-7.5 7.5h-6.039a7.5 7.5 0 0 1-7.5-7.5v-6.701a7.5 7.5 0 0 1 7.5-7.5h6.039a7.5 7.5 0 0 1 7.5 7.5zm57.087 87.075a7.5 7.5 0 0 1-7.5 7.5H64.164c-20.794 0-37.711-16.917-37.711-37.71v-30.427c-11.941-2.27-21-12.781-21-25.373V66.226A7.497 7.497 0 0 1 7.5 51.516h6.12V36.771c0-4.142 3.357-7.5 7.5-7.5s7.5 3.358 7.5 7.5v14.746h10.666V36.771c0-4.142 3.357-7.5 7.5-7.5s7.5 3.358 7.5 7.5v14.746h6.12a7.5 7.5 0 0 1 7.5 7.5c0 3.432-2.307 6.318-5.453 7.21v16.982c0 12.592-9.059 23.103-21 25.373v30.427c0 12.522 10.188 22.71 22.711 22.71H184.67a7.5 7.5 0 0 1 7.5 7.5z" fill="#000001"/></svg>