<svg xmlns="http://www.w3.org/2000/svg" width="48.999" height="48.999" viewBox="0 0 48.999 48.999"><path d="M42.749 24.575c.959 0 1.734-.779 1.734-1.738v-1.26c0-.961-.775-1.738-1.734-1.738h-8.652V1.982c0-.96-.777-1.737-1.736-1.737H16.642c-.96 0-1.737.777-1.737 1.737V19.84h-2.954V1.738C11.951.779 11.174 0 10.214 0H5.965v3.476h2.51v16.362h-2.22c-.959 0-1.738.776-1.738 1.737v1.261c0 .959.777 1.737 1.738 1.737h8.65V34.85H12.88v-7.722c0-.962-.777-1.739-1.737-1.739H6.254c-.959 0-1.738.777-1.738 1.739v20.136c0 .961.777 1.735 1.738 1.735h4.888c.96 0 1.737-.774 1.737-1.735v-7.726h23.243v7.726c0 .961.777 1.735 1.736 1.735h4.891c.959 0 1.734-.774 1.734-1.735V27.131c0-.963-.775-1.74-1.734-1.74h-4.891c-.959 0-1.736.777-1.736 1.74v7.721h-2.025V24.575h8.652zm-24.368 2.771a2.502 2.502 0 0 1 1.1-.265 2.51 2.51 0 0 1 2.51 2.513 2.509 2.509 0 0 1-2.51 2.51c-.397 0-.767-.101-1.1-.264a2.506 2.506 0 0 1-1.411-2.246c0-.99.579-1.84 1.411-2.248zM30.62 31.84a2.491 2.491 0 0 1-1.103.264 2.51 2.51 0 0 1 0-5.021c.397 0 .771.101 1.103.265a2.5 2.5 0 0 1 1.408 2.246c0 .989-.578 1.836-1.408 2.246zM18.381 3.719H30.62V18.54H18.381V3.719z"/></svg>