<svg xmlns="http://www.w3.org/2000/svg" viewBox="0 0 512 512"><path d="M301.456 129.709l-64.823-10.688a6.276 6.276 0 0 0-7.214 5.172l-9.8 59.441 4.701-2.93c16.14-10.059 37.378-5.132 47.438 11.007 8.904 14.284 6.06 32.558-5.9 43.546l17.714 2.92a6.276 6.276 0 0 0 7.214-5.172l15.841-96.084a6.274 6.274 0 0 0-5.171-7.212zm192.274-8.94c0-14.943-12.113-27.056-27.056-27.056h-48.249c-14.943 0-27.056 12.113-27.056 27.056v17.143l13.878-1.628 37.642-19.734-39.685 39.432-60.684 7.118c-10.6 1.243-18.185 10.844-16.942 21.445 1.241 10.583 10.823 18.187 21.446 16.942l67.316-7.897a19.32 19.32 0 0 0 11.369-5.485l44.422-44.139-30.802 57.848c-5.383 10.109-14.589 10.015-22.739 10.97l-25.222 2.958s-.405 9.028-.421 215.289c-.001 12.808 10.381 23.191 23.188 23.192h.001c12.807 0 23.189-10.382 23.19-23.188l.013-171.448h10.003l-.003.066.484 171.446c.036 12.786 10.411 23.124 23.188 23.124h.067c12.808-.037 23.161-10.448 23.124-23.256l-.472-310.198zM442.339 0c-22.121 0-40.052 17.931-40.052 40.052 0 22.137 17.99 40.052 40.052 40.052 22.052 0 40.052-17.905 40.052-40.052C482.391 17.931 464.458 0 442.339 0z"/><path d="M258.256 200.128c-5.411-8.682-16.835-11.331-25.518-5.921l-26.983 16.82c-.092-18.346-.073-14.377-.164-32.818-.12-24.05-19.784-43.615-43.834-43.615H62.316c-24.05 0-43.713 19.565-43.834 43.615l-.685 136.081c-.052 10.23 8.2 18.564 18.43 18.615h.095c10.045-.001 18.469-8.142 18.52-18.43l.685-136.081a3.576 3.576 0 0 1 7.153.018l.009 311.36c0 12.341 10.058 22.228 22.227 22.228 12.142 0 22.228-9.91 22.228-22.228V312.105h9.597v177.667c0 12.277 9.953 22.228 22.228 22.228.154 0 .304-.02.459-.023 12.117-.247 21.768-10.15 21.768-22.204 0-236.789-.357-283.743-.399-312.799a3.926 3.926 0 0 1 7.852-.014c.001.442-.032.92-.104 1.434.032 6.542.299 59.383.331 65.995.073 14.487 16.044 23.278 28.322 15.626l55.138-34.37c8.68-5.412 11.331-16.836 5.92-25.517z"/><circle cx="112.193" cy="83.973" r="38.389"/></svg>