<svg xmlns="http://www.w3.org/2000/svg" viewBox="0 0 452.408 452.408"><path d="M211.041 139.914a182.902 182.902 0 0 0-20.479 7.294l52.598 147.42 23.391.865-55.51-155.579zM4.931 197.781a5.314 5.314 0 0 0 5.935-.363c11.69-8.979 27.507-17.494 45.7-23.984 46.472-16.577 70.896-8.401 72.546-8.401a5.32 5.32 0 0 0 4.249-2.119c10.417-13.839 32.718-28.544 60.603-38.491 20.893-7.453 50.325-13.688 71.281-8.554a5.32 5.32 0 0 0 5.513-1.966c10.417-13.839 32.718-28.544 60.603-38.491 18.193-6.49 35.828-9.907 50.562-10.354a5.316 5.316 0 0 0 3.407-9.25c-22.37-20.274-67.711-34.991-121.23-34.992-28.6-.001-59.533 4.221-90.55 14.024l-5.03-14.101a10.814 10.814 0 0 0-2.895-4.359c-2.875-2.63-7.069-3.628-10.995-2.227-3.846 1.372-6.53 4.802-7.1 8.66a10.818 10.818 0 0 0 .515 5.23l5.027 14.091C66.299 76.708 9.265 146.602 2.375 192.412a5.315 5.315 0 0 0 2.556 5.369z"/><path d="M340.713 246.352a22 22 0 0 0-17.177 14.012l-21.159 56.469-146.028-5.403a21.558 21.558 0 0 0-22.357 21.387l-.323 43.893a21.562 21.562 0 0 0 21.426 21.719l32.279.2-35.401-36.57 61.377 39.429.018.01c4.977 3.189 11.163 3.556 16.347 1.283l63.555-27.87c9.3-4.078 13.2-15.283 8.217-24.313-.075-.137-.155-.27-.234-.404-4.391-7.474-13.773-10.678-21.935-7.099l-55.026 24.13-55.581-35.706 54.712 17.879 49.198-21.574c17.204-7.545 37.301.286 44.851 17.506 7.518 17.144-.229 37.276-17.506 44.852l-20.562 9.017c.199.001 22.515-.634 24.082-.634 8.909 0 17.294-5.452 20.604-14.286l27-72.054 61.615 77.611c7.554 9.516 21.392 11.105 30.909 3.551 9.516-7.555 11.106-21.393 3.551-30.909l-85.798-108.073a22.003 22.003 0 0 0-20.654-8.053zM74.261 315.525c-22.514-.14-40.878 17.998-41.018 40.513-.139 22.514 17.999 40.879 40.513 41.018 22.582.14 40.879-18.094 41.018-40.513.138-22.409-17.919-40.878-40.513-41.018zM441.538 417.15H10.869C4.866 417.15 0 422.016 0 428.02s4.866 10.87 10.87 10.87h430.669c6.003 0 10.87-4.866 10.87-10.87s-4.867-10.87-10.871-10.87z"/></svg>