<?xml version="1.0" encoding="iso-8859-1"?>
<!-- Generator: Adobe Illustrator 18.0.0, SVG Export Plug-In . SVG Version: 6.00 Build 0)  -->
<!DOCTYPE svg PUBLIC "-//W3C//DTD SVG 1.1//EN" "http://www.w3.org/Graphics/SVG/1.1/DTD/svg11.dtd">
<svg version="1.1" id="Capa_1" xmlns="http://www.w3.org/2000/svg" xmlns:xlink="http://www.w3.org/1999/xlink" x="0px" y="0px"
     viewBox="0 0 452.408 452.408" style="enable-background:new 0 0 452.408 452.408;" xml:space="preserve">
<g>
    <path d="M211.041,139.914c-3.436,0.999-6.896,2.112-10.357,3.346c-3.547,1.265-6.919,2.587-10.122,3.948l52.598,147.42
        l23.391,0.865L211.041,139.914z"/>
    <path d="M4.931,197.781c1.866,1.1,4.215,0.958,5.935-0.363c11.69-8.979,27.507-17.494,45.7-23.984
        c46.472-16.577,70.896-8.401,72.546-8.401c1.646,0,3.23-0.766,4.249-2.119c10.417-13.839,32.718-28.544,60.603-38.491
        c20.893-7.453,50.325-13.688,71.281-8.554c2.063,0.505,4.234-0.267,5.513-1.966c10.417-13.839,32.718-28.544,60.603-38.491
        c18.193-6.49,35.828-9.907,50.562-10.354c2.167-0.066,4.076-1.441,4.826-3.475c0.749-2.034,0.188-4.319-1.419-5.775
        C362.96,35.534,317.619,20.817,264.1,20.816c-28.6-0.001-59.533,4.221-90.55,14.024l-5.03-14.101
        c-0.617-1.729-1.629-3.201-2.895-4.359h0c-2.875-2.63-7.069-3.628-10.995-2.227c-3.846,1.372-6.53,4.802-7.1,8.66l0,0
        c-0.252,1.705-0.104,3.493,0.515,5.23l5.027,14.091C66.299,76.708,9.265,146.602,2.375,192.412
        C2.053,194.556,3.064,196.68,4.931,197.781z"/>
    <path d="M340.713,246.352c-7.832,1.234-14.395,6.587-17.177,14.012c-2.344,6.256-18.89,50.412-21.159,56.469l-146.028-5.403
        c-5.849-0.215-11.503,1.95-15.701,5.966c-4.212,4.029-6.613,9.592-6.656,15.421l-0.323,43.893
        c-0.042,5.722,2.192,11.227,6.211,15.301c4.019,4.074,9.492,6.383,15.215,6.418l32.279,0.2l-35.401-36.57l61.377,39.429l0,0
        c0.006,0.004,0.012,0.007,0.018,0.01c4.977,3.189,11.163,3.556,16.347,1.283l63.555-27.87c9.3-4.078,13.2-15.283,8.217-24.313
        c-0.075-0.137-0.155-0.27-0.234-0.404c-4.391-7.474-13.773-10.678-21.935-7.099l-55.026,24.13l-55.581-35.706l54.712,17.879
        l49.198-21.574c17.204-7.545,37.301,0.286,44.851,17.506c7.518,17.144-0.229,37.276-17.506,44.852
        c-11.598,5.086-8.794,3.856-20.562,9.017c0.199,0.001,22.515-0.634,24.082-0.634c8.909,0,17.294-5.452,20.604-14.286l27-72.054
        c5.899,7.43,55.375,69.752,61.615,77.611c7.554,9.516,21.392,11.105,30.909,3.551c9.516-7.555,11.106-21.393,3.551-30.909
        l-85.798-108.073C356.436,248.194,348.544,245.119,340.713,246.352z"/>
    <path d="M74.261,315.525c-22.514-0.14-40.878,17.998-41.018,40.513c-0.139,22.514,17.999,40.879,40.513,41.018
        c22.582,0.14,40.879-18.094,41.018-40.513C114.912,334.134,96.855,315.665,74.261,315.525z"/>
    <path d="M441.538,417.15c-7.514,0-422.933,0-430.669,0C4.866,417.15,0,422.016,0,428.02s4.866,10.87,10.87,10.87h430.669
        c6.003,0,10.87-4.866,10.87-10.87S447.542,417.15,441.538,417.15z"/>
</g>
</svg>
