<?xml version="1.0" standalone="no"?>
<!DOCTYPE svg PUBLIC "-//W3C//DTD SVG 20010904//EN"
 "http://www.w3.org/TR/2001/REC-SVG-20010904/DTD/svg10.dtd">
<svg version="1.0" xmlns="http://www.w3.org/2000/svg"
 width="300.000000pt" height="300.000000pt" viewBox="0 0 300.000000 300.000000"
 preserveAspectRatio="xMidYMid meet">
<metadata>
Created by potrace 1.11, written by Peter Selinger 2001-2013
</metadata>
<g transform="translate(0.000000,300.000000) scale(0.100000,-0.100000)"
fill="#000000" stroke="none">
<path d="M0 1500 l0 -1500 1500 0 1500 0 0 1500 0 1500 -1500 0 -1500 0 0
-1500z m1593 1018 c58 -145 791 -2018 794 -2030 5 -16 -5 -18 -119 -18 l-125
0 -56 143 c-31 78 -88 224 -127 325 l-72 182 -410 -2 -411 -3 -125 -322 -125
-323 -123 0 -124 0 9 23 c9 22 789 2001 798 2025 4 8 35 12 108 12 73 0 104
-4 108 -12z"/>
<path d="M1481 2249 c-4 -38 -87 -278 -192 -555 -71 -187 -129 -344 -129 -347
0 -4 146 -7 325 -7 179 0 325 2 325 3 0 2 -59 161 -131 353 -72 192 -146 396
-165 454 -18 58 -33 102 -33 99z"/>
</g>
</svg>
