<svg version="1" xmlns="http://www.w3.org/2000/svg" width="400" height="400" viewBox="0 0 300.000000 300.000000"><path d="M0 150v150h300V0H0v150zM159.3 48.2c5.8 14.5 79.1 201.8 79.4 203 .5 1.6-.5 1.8-11.9 1.8h-12.5l-5.6-14.3c-3.1-7.8-8.8-22.4-12.7-32.5l-7.2-18.2-41 .2-41.1.3-12.5 32.2L81.7 253H57l.9-2.3c.9-2.2 78.9-200.1 79.8-202.5.4-.8 3.5-1.2 10.8-1.2 7.3 0 10.4.4 10.8 1.2z"/><path d="M148.1 75.1c-.4 3.8-8.7 27.8-19.2 55.5-7.1 18.7-12.9 34.4-12.9 34.7 0 .4 14.6.7 32.5.7s32.5-.2 32.5-.3c0-.2-5.9-16.1-13.1-35.3-7.2-19.2-14.6-39.6-16.5-45.4-1.8-5.8-3.3-10.2-3.3-9.9z"/></svg>